HIERARCHY
ROOT hip
{
  OFFSET 0 0 0
  CHANNELS 6 Xposition Yposition Zposition Zrotation Yrotation Xrotation
  JOINT abdomen
  {
    OFFSET 0 20.6881 -0.73152
    CHANNELS 3 Zrotation Xrotation Yrotation
    JOINT chest
    {
      OFFSET 0 11.7043 -0.48768
      CHANNELS 3 Zrotation Xrotation Yrotation
      JOINT neck
      {
        OFFSET 0 22.1894 -2.19456
        CHANNELS 3 Zrotation Xrotation Yrotation
        JOINT head
        {
          OFFSET -0.24384 7.07133 1.2192
          CHANNELS 3 Zrotation Xrotation Yrotation
          JOINT leftEye
          {
            OFFSET 4.14528 8.04674 8.04672
            CHANNELS 3 Zrotation Xrotation Yrotation
            End Site
            {
              OFFSET 1 0 0
            }
          }
          JOINT rightEye
          {
            OFFSET -3.6576 8.04674 8.04672
            CHANNELS 3 Zrotation Xrotation Yrotation
            End Site
            {
              OFFSET 1 0 0
            }
          }
        }
      }
      JOINT rCollar
      {
        OFFSET -2.68224 19.2634 -4.8768
        CHANNELS 3 Zrotation Xrotation Yrotation
        JOINT rShldr
        {
          OFFSET -8.77824 -1.95073 1.46304
          CHANNELS 3 Zrotation Xrotation Yrotation
          JOINT rForeArm
          {
            OFFSET -28.1742 -1.7115 0.48768
            CHANNELS 3 Zrotation Xrotation Yrotation
            JOINT rHand
            {
              OFFSET -22.5879 0.773209 7.07136
              CHANNELS 3 Zrotation Xrotation Yrotation
              JOINT rThumb1
              {
                OFFSET -1.2192 -0.487915 3.41376
                CHANNELS 3 Zrotation Xrotation Yrotation
                JOINT rThumb2
                {
                  OFFSET -3.37035 -0.52449 3.41376
                  CHANNELS 3 Zrotation Xrotation Yrotation
                  End Site
                  {
                    OFFSET -1.78271 -1.18214 1.43049
                  }
                }
              }
              JOINT rIndex1
              {
                OFFSET -7.75947 0.938293 5.60832
                CHANNELS 3 Zrotation Xrotation Yrotation
                JOINT rIndex2
                {
                  OFFSET -2.54057 -0.884171 1.56538
                  CHANNELS 3 Zrotation Xrotation Yrotation
                  End Site
                  {
                    OFFSET -1.62519 -0.234802 1.16502
                  }
                }
              }
              JOINT rMid1
              {
                OFFSET -8.24714 1.18213 3.41376
                CHANNELS 3 Zrotation Xrotation Yrotation
                JOINT rMid2
                {
                  OFFSET -3.10165 -0.590103 1.0647
                  CHANNELS 3 Zrotation Xrotation Yrotation
                  End Site
                  {
                    OFFSET -2.48547 -0.328903 0.83742
                  }
                }
              }
              JOINT rRing1
              {
                OFFSET -8.82822 0.546677 1.51678
                CHANNELS 3 Zrotation Xrotation Yrotation
                JOINT rRing2
                {
                  OFFSET -2.60934 -0.819778 -0.0198488
                  CHANNELS 3 Zrotation Xrotation Yrotation
                  End Site
                  {
                    OFFSET -2.33842 -0.294052 0.168128
                  }
                }
              }
              JOINT rPinky1
              {
                OFFSET -8.27202 -0.0477905 -0.4584
                CHANNELS 3 Zrotation Xrotation Yrotation
                JOINT rPinky2
                {
                  OFFSET -1.82734 -0.647385 -0.700984
                  CHANNELS 3 Zrotation Xrotation Yrotation
                  End Site
                  {
                    OFFSET -1.69225 -0.51767 -0.607171
                  }
                }
              }
            }
          }
        }
      }
      JOINT lCollar
      {
        OFFSET 2.68224 19.2634 -4.8768
        CHANNELS 3 Zrotation Xrotation Yrotation
        JOINT lShldr
        {
          OFFSET 8.77824 -1.95073 1.46304
          CHANNELS 3 Zrotation Xrotation Yrotation
          JOINT lForeArm
          {
            OFFSET 28.1742 -1.7115 0.48768
            CHANNELS 3 Zrotation Xrotation Yrotation
            JOINT lHand
            {
              OFFSET 22.5879 0.773209 7.07136
              CHANNELS 3 Zrotation Xrotation Yrotation
              JOINT lThumb1
              {
                OFFSET 1.2192 -0.487915 3.41376
                CHANNELS 3 Zrotation Xrotation Yrotation
                JOINT lThumb2
                {
                  OFFSET 3.37035 -0.52449 3.41376
                  CHANNELS 3 Zrotation Xrotation Yrotation
                  End Site
                  {
                    OFFSET 1.78271 -1.18214 1.43049
                  }
                }
              }
              JOINT lIndex1
              {
                OFFSET 7.75947 0.938293 5.60832
                CHANNELS 3 Zrotation Xrotation Yrotation
                JOINT lIndex2
                {
                  OFFSET 2.54057 -0.884171 1.56538
                  CHANNELS 3 Zrotation Xrotation Yrotation
                  End Site
                  {
                    OFFSET 1.62519 -0.234802 1.16502
                  }
                }
              }
              JOINT lMid1
              {
                OFFSET 8.24714 1.18213 3.41376
                CHANNELS 3 Zrotation Xrotation Yrotation
                JOINT lMid2
                {
                  OFFSET 3.10165 -0.590103 1.0647
                  CHANNELS 3 Zrotation Xrotation Yrotation
                  End Site
                  {
                    OFFSET 2.48547 -0.328903 0.83742
                  }
                }
              }
              JOINT lRing1
              {
                OFFSET 8.82822 0.546677 1.51678
                CHANNELS 3 Zrotation Xrotation Yrotation
                JOINT lRing2
                {
                  OFFSET 2.60934 -0.819778 -0.0198488
                  CHANNELS 3 Zrotation Xrotation Yrotation
                  End Site
                  {
                    OFFSET 2.33842 -0.294052 0.168128
                  }
                }
              }
              JOINT lPinky1
              {
                OFFSET 8.27202 -0.0477905 -0.4584
                CHANNELS 3 Zrotation Xrotation Yrotation
                JOINT lPinky2
                {
                  OFFSET 1.82734 -0.647385 -0.700984
                  CHANNELS 3 Zrotation Xrotation Yrotation
                  End Site
                  {
                    OFFSET 1.69225 -0.51767 -0.607171
                  }
                }
              }
            }
          }
        }
      }
    }
  }
  JOINT rButtock
  {
    OFFSET -8.77824 4.35084 1.2192
    CHANNELS 3 Zrotation Xrotation Yrotation
    JOINT rThigh
    {
      OFFSET 0 -1.70687 -2.19456
      CHANNELS 3 Zrotation Xrotation Yrotation
      JOINT rShin
      {
        OFFSET 0 -36.8199 0.73152
        CHANNELS 3 Zrotation Xrotation Yrotation
        JOINT rFoot
        {
          OFFSET 0.73152 -45.1104 -5.12064
          CHANNELS 3 Zrotation Xrotation Yrotation
          End Site
          {
            OFFSET -1.1221 -3.69964 12.103
          }
        }
      }
    }
  }
  JOINT lButtock
  {
    OFFSET 8.77824 4.35084 1.2192
    CHANNELS 3 Zrotation Xrotation Yrotation
    JOINT lThigh
    {
      OFFSET 0 -1.70687 -2.19456
      CHANNELS 3 Zrotation Xrotation Yrotation
      JOINT lShin
      {
        OFFSET 0 -36.8199 0.73152
        CHANNELS 3 Zrotation Xrotation Yrotation
        JOINT lFoot
        {
          OFFSET -0.73152 -45.1104 -5.12064
          CHANNELS 3 Zrotation Xrotation Yrotation
          End Site
          {
            OFFSET 1.1221 -3.69964 12.103
          }
        }
      }
    }
  }
}
MOTION
Frames:	6
Frame Time:	0.03333
0.0 0.0 0.0 0.0 0.0 0.0 0.0 0.0 0.0 0.0 0.0 0.0 0.0 0.0 0.0 0.0 0.0 0.0 0.0 0.0 0.0 0.0 0.0 0.0 0.0 0.0 0.0 0.0 0.0 0.0 0.0 0.0 0.0 0.0 0.0 0.0 0.0 0.0 0.0 0.0 0.0 0.0 0.0 0.0 0.0 0.0 0.0 0.0 0.0 0.0 0.0 0.0 0.0 0.0 0.0 0.0 0.0 0.0 0.0 0.0 0.0 0.0 0.0 0.0 0.0 0.0 0.0 0.0 0.0 0.0 0.0 0.0 0.0 0.0 0.0 0.0 0.0 0.0 0.0 0.0 0.0 0.0 0.0 0.0 0.0 0.0 0.0 0.0 0.0 0.0 0.0 0.0 0.0 0.0 0.0 0.0 0.0 0.0 0.0 0.0 0.0 0.0 0.0 0.0 0.0 0.0 0.0 0.0 0.0 0.0 0.0 0.0 0.0 0.0 0.0 0.0 0.0 0.0 0.0 0.0 0.0 0.0 0.0 0.0 0.0 0.0 0.0 0.0 0.0 0.0 0.0 0.0
0.44 60.2008 0.3664 28.224245 70.52979 23.855134 -19.734912 15.584408 4.68389 7.91785 -9.928318 -8.202782 8.284839 24.024641 86.739138 -32.460535 8.252557 -117.80746 0.000961 -0.0 -0.001394 0.001243 0.0 0.001841 -152.68888 11.676934 158.228603 143.894047 1.657977 150.068053 -98.87209 17.148413 72.758397 50.331302 -65.861637 36.997225 -2.609166 2.554273 0.457313 -0.002003 0.582401 1.727714 10.746605 -19.048118 -4.725104 -169.719446 -27.975298 109.001119 -36.034243 51.723874 29.831353 13.360779 -30.009 -1.304823 -0.020624 -1.644428 -0.517664 9.841597 -62.544868 -9.183769 17.316298 60.660496 12.794846 -147.220255 8.232833 -142.249598 155.809785 -5.555343 -162.266917 -168.536401 -79.724386 140.771782 25.306368 75.811855 40.02705 -160.216845 -36.17559 -139.129229 9.682219 9.193259 -2.243829 163.284998 -66.892262 -107.640985 64.084813 43.04061 -52.301771 172.373743 -22.909806 -112.618363 151.4754 17.841448 -137.538651 -5.288448 -5.849379 0.335518 -0.00436 0.876277 -0.276481 78.335304 78.78261 -91.68002 153.033817 40.627124 148.171211 147.799129 10.908995 141.644381 -179.990103 75.749452 -0.006771 149.811154 6.707839 78.646895 79.309878 18.139567 90.706397 31.171839 17.3209 -160.053802 -179.926873 75.750982 -0.056364 -128.11279 76.526857 -180.0 -48.897088 -40.686913 -67.524542 -34.178304 20.970665 -137.618134
0.6528 60.197599999999994 0.4921 28.006912 70.555926 24.066874 -16.859477 13.217601 -85.160623 7.615899 5.079123 80.005292 6.056771 19.97402 61.387932 -28.625883 -6.023896 -95.902979 0.005114 -0.0 -0.002054 -0.000579 0.0 -0.001411 -155.716414 -4.92504 162.136582 142.733197 4.605158 163.888153 -177.767851 13.433374 86.927637 166.939943 -24.982149 142.482645 -158.449578 3.763517 88.551148 -153.476751 -2.742315 76.181658 -140.762981 1.380758 116.229517 106.908343 -70.618629 54.483366 -169.088805 -33.247501 145.375074 -161.329199 1.272146 142.244721 -145.116659 0.185948 -179.18564 -11.654583 -65.413588 -32.719288 -80.938937 -51.225751 -79.359797 -146.592785 12.204507 -142.836824 13.574908 42.162711 -15.390535 -72.086355 -2.352847 -48.906286 176.800855 19.68548 -110.428393 -165.342118 -27.158685 -142.021573 169.31992 -7.00052 -89.923297 -60.692786 -67.198552 -46.844307 -12.216227 -21.784714 5.121984 -88.074897 -60.571955 -34.4586 82.841278 61.111543 -74.531887 83.138448 64.162993 -75.307658 -0.006207 1.771477 -0.555859 -5.31971 36.843029 -6.381416 126.796599 -26.619923 124.513496 155.024707 37.966655 146.468427 0.003604 0.001241 0.001802 -55.053365 -54.05459 -60.501046 -27.126402 71.374328 131.916425 -147.940651 -11.387947 103.965282 -179.997269 75.749914 -0.002818 -122.562543 78.366476 -56.699345 -3.148351 46.549907 48.256307 82.797943 -24.330256 3.330058
0.8623999999999999 60.174499999999995 0.5917 27.84544 70.437289 24.233053 -17.17767 14.391556 -50.110212 10.290782 -0.742583 45.62638 8.708291 27.215913 104.673054 -32.55266 18.753335 -133.247939 -0.003566 -0.0 0.001598 0.001534 -0.0 -0.00373 -155.445483 -3.13476 161.757077 135.807658 -20.547763 163.166163 21.318143 -36.498735 69.903564 -14.12245 40.926167 3.952945 -173.771108 -11.439818 89.890962 118.605197 -62.172188 87.718857 5.922049 -10.174291 -2.969653 -65.044278 48.64831 51.070704 89.035558 -81.39275 59.760222 -42.446488 58.389801 36.314772 -0.001802 -0.018606 -0.005163 -154.230124 12.766841 170.106677 -25.536416 -38.087562 -24.599003 -93.981908 -51.619154 -94.038319 -2.529906 -18.881195 3.794235 -74.691758 18.470735 8.170949 1.910328 1.349233 -34.446743 5.390009 18.670822 -0.461196 -1.59008 -1.575898 0.223166 126.317771 -19.097453 -113.10252 -0.182874 -0.30079 0.104906 -178.579643 -38.001697 -104.76096 160.827231 -7.141457 -143.317002 5.107763 21.250832 -4.816838 69.297617 72.946225 -87.01728 157.27279 44.236588 -169.285671 145.50152 13.10349 142.110628 25.7261 -40.238144 27.031592 -0.003254 -0.00079 -0.001627 -55.466741 -54.207812 -60.830747 -26.884252 71.812767 132.484977 -149.539878 -0.569294 101.285867 -179.99163 75.748929 -0.005727 -127.172942 78.932951 11.227781 47.175975 20.431777 10.256568 -158.428575 9.260221 28.615343
1.0656 60.14810000000001 0.6642 27.73316 70.181553 24.396609 -19.073845 10.279222 180.0 -7.72822 4.356661 176.037843 7.580414 31.32516 129.262646 -26.981403 31.794387 -155.792737 -0.001369 0.0 -0.001895 -0.000768 -0.0 0.002789 -158.465197 -30.011999 166.911451 90.314742 86.578506 -129.458999 -25.122039 58.174017 82.774475 -3.766959 14.197381 0.296484 -0.441762 0.435277 0.068464 39.384959 -62.795085 -17.06232 -108.426748 34.160939 91.743308 63.703433 -62.259232 19.516411 -36.03565 51.723482 29.831577 -88.572752 63.982817 80.47171 0.000406 0.022711 0.006524 -154.179036 -65.019977 -178.248357 12.752989 43.414836 10.611833 -127.855396 -30.897172 -125.379445 6.042647 25.599144 -7.234294 114.909354 -25.313071 -142.623237 6.565589 -44.021323 73.505061 -161.963931 -35.767936 -139.468028 68.483029 37.953806 -35.659128 -92.538024 -54.488029 -32.821767 123.87061 22.789375 -104.456413 65.365485 55.345442 -45.641037 0.058217 0.167879 -0.031031 42.068073 58.558605 -36.102467 -0.005328 1.771604 -0.55505 155.551118 -1.033546 -171.96879 -9.027703 28.891145 -7.894277 -62.920114 85.708162 25.188603 0.004012 0.000351 0.002006 -57.688963 -56.179053 -180.0 -69.23709 -47.432573 16.345391 10.575395 -23.723079 110.673646 -0.020076 -0.001142 -0.015057 9.682974 6.090939 180.0 0.232471 -50.670005 -105.577592 -157.030728 6.141214 22.330718
1.2527 60.1155 0.7394999999999999 27.724885 69.801614 24.637141 -16.73895 12.764003 -83.611328 7.558129 4.357937 79.114862 -2.154862 16.404579 10.920108 -4.812715 -24.30245 -44.281748 -0.001428 0.0 -0.001868 -0.001428 0.0 -0.001868 -29.636147 58.071172 32.036822 -140.602896 -20.026501 130.454258 74.642548 -15.303447 -35.992626 -170.952726 38.541152 142.658814 83.253718 -50.257785 33.616505 -88.947505 38.802265 51.599162 -46.209264 39.652063 36.318881 84.731658 -62.522431 37.556261 15.671206 -46.713431 -2.537711 -3.387085 17.336234 3.366947 -0.008683 -0.831611 -0.25958 9.302428 12.721723 1.660928 54.190274 87.260394 -14.47041 -24.397042 -39.478629 -24.491717 29.828047 58.184344 -32.23295 -72.196017 -9.114719 -66.083774 -168.708462 13.645996 -116.172473 -172.782277 -8.545218 -144.967578 92.209516 38.141714 -52.469349 129.783876 -19.067773 -77.139971 166.784764 -43.921455 -122.069194 157.160544 -12.46042 -119.155715 39.28827 53.366216 -32.878007 42.048405 58.500056 -36.277915 -0.003647 1.687405 -0.531013 29.98205 74.82995 -42.948689 -17.605773 61.627721 -12.865413 -39.330751 80.862437 3.748092 -0.000125 0.001012 -6.3e-05 -59.661193 -54.622796 49.158246 68.306588 -7.839493 -87.444796 24.108892 2.145964 1.440532 0.008697 0.001175 0.004349 10.25474 8.285097 -51.46266 -44.539211 28.177493 161.971199 -35.87043 2.754853 -62.254685
